<?xml version="1.0" encoding="UTF-8"?><!DOCTYPE svg PUBLIC "-//W3C//DTD SVG 1.1//EN" "http://www.w3.org/Graphics/SVG/1.1/DTD/svg11.dtd"><svg xmlns="http://www.w3.org/2000/svg"><symbol id="mg-documentation" viewBox="0 0 65.7 59.8"><path d="M59.2 13.3h-1.1c-.7-3.3-3.3-5.7-6.3-5.7H30.4c-.8-1.2-2.1-1.9-3.5-1.9H24V5c0-.6-.1-1.2-.3-1.8C23 1.3 21.4 0 19.5 0H4.4C2 0 0 2.3 0 5v49.1h7.4v5.7h58.3V20.6c0-4-2.9-7.3-6.5-7.3zm-7.4-4.7c2.4 0 4.5 1.9 5.2 4.6H31.3v-2.5-.5-.2c0-.1 0-.3-.1-.4 0-.1-.1-.3-.1-.4v-.1c0-.1-.1-.2-.1-.4v-.1h20.8zM7.4 53H1.1V5c0-2.2 1.5-3.9 3.3-3.9h15.1c1.4 0 2.6 1 3.1 2.5.2.5.2 1 .2 1.5v.7h-11c-2.4 0-4.4 2.3-4.4 5V53zm57.2 5.7H8.4v-48c0-2.2 1.5-3.9 3.3-3.9h15.1c1.1 0 2.1.6 2.7 1.6.4.7.6 1.5.6 2.3v3.6H59c3 0 5.4 2.8 5.4 6.3v38.1z"/></symbol><symbol id="mg-video-tutorials" viewBox="0 0 65 62"><path d="M0 0v62h65V0H0zm64 1v45.6H1V1h63zM1 61V47.6h63V61H1z"/><path d="M18 51c-1.8 0-3.2 1.3-3.4 3H6v1h8.6c.2 1.7 1.7 3 3.4 3s3.2-1.3 3.4-3H59v-1H21.4c-.2-1.7-1.6-3-3.4-3zm0 6c-1.4 0-2.5-1.1-2.5-2.5S16.6 52 18 52s2.5 1.1 2.5 2.5S19.4 57 18 57zM26.5 14.5v21L44.7 25 26.5 14.5zm1 1.7L42.7 25l-15.2 8.8V16.2z"/></symbol><symbol id="mg-logo" viewBox="0 0 60 60" style="enable-background:new 0 0 60 60;" xml:space="preserve">
    <style type="text/css">
        .st0{fill:#4B62B2;}
        .st1{fill:#3B5182;}
        .st2{fill:#87AF46;}
        .st3{fill:#5B7229;}
        .st4{fill:#1E1D1B;stroke:#1E1D1B;stroke-width:0.12;stroke-linecap:round;stroke-linejoin:round;stroke-miterlimit:10;}
    </style>
    <g id="Livello_1_1_">
        <path class="st4" d="M30,11.5c0.8-0.7,4-3.3,8.7-3.4C45.1,8,48.9,13,49.3,13.4c1.9,2.5,2.3,5.1,2.5,6.4c0,0.1,0,0.1,0,0.2v15.2v0.1
		c0,0.2,0,0.5,0.1,0.7c0.1,0.2,0.1,0.3,0.2,0.4c0.2,0.3,0.4,0.5,0.7,0.6l0,0c0.1,0,0.2,0.1,0.3,0.1c0.1,0,0.2,0.1,0.3,0.1
		c0.2,0.1,0.7,0.3,1.1,0.6c0.7,0.4,1.3,0.8,1.4,0.9c0.4,0.3,0.9,0.9,1.5,1.8c0.2,0.3,0.5,0.8,0.7,1.5c0.4,1.2,0.4,2.2,0.4,2.6
		c-0.1,1.8-0.8,3.1-1.1,3.5c-1,1.7-2.4,2.5-2.9,2.8c-1.3,0.7-2.5,0.9-2.8,0.9c-0.3,0-1.2,0.1-2.4-0.1c-0.6-0.1-2.2-0.5-3.7-2
		c-1.1-1.1-1.8-2.3-2.1-3.3c-0.2-0.7-0.3-1.3-0.3-2V21.1c0-2.3-2-4.3-4.3-4.2c-2.3,0-4.2,2-4.2,4.2c0,6,0,11.8,0,17.7
		c-0.1,2.7-2.2,4.8-4.6,4.8c-2.1,0-3.9-1.5-4.4-3.3c-0.1-0.5-0.2-0.9-0.1-1.2c0-0.5-0.1-1.3-0.6-2.2c-0.4-0.7-0.8-1.1-0.9-1.2
		c-1-0.9-2.2-1-2.5-1c-0.8-0.1-1.6,0.2-1.8,0.3c-0.2,0.1-1,0.5-1.7,1.3c-0.6,0.7-0.7,1.3-0.8,1.8C17.1,38.4,17,38.7,17,39
		c-0.1,1.8,0,5.1,0,5.9c0,0.1,0,0.1,0,0.2c-0.1,0.8-0.4,2.8-2.1,4.5c-0.4,0.4-1.5,1.5-3.4,2.1c-1.7,0.6-3.1,0.4-3.5,0.3
		c-0.4-0.1-1.5-0.3-2.7-1c-0.7-0.5-2-1.3-2.8-3c-0.3-0.6-1-2.1-0.9-4c0.1-1.4,0.6-2.5,0.7-3c0.7-1.3,1.6-2.1,1.9-2.4
		c0.9-0.7,1.9-1.1,2.4-1.3h0.1c0.4-0.1,0.7-0.2,0.9-0.7s0.3-0.8,0.3-1c0-4.7,0-9.3,0-13.9c0-0.6,0-1.3,0.1-2.1
		c0-0.3,0.2-1.4,0.6-2.6c0.8-2.6,2.5-4.4,2.8-4.7c0.4-0.4,2.3-2.4,5.6-3.5c1.5-0.5,2.6-0.6,3-0.7c1.5-0.1,2.7,0.1,3.5,0.2
		c1.8,0.4,2.9,1,3.6,1.4c1,0.6,2,1.2,2.5,1.7"/>
    </g></symbol></svg>